<mxfile host="app.diagrams.net" modified="2023-05-05T14:56:52.387Z" agent="Mozilla/5.0 (Windows NT 10.0; Win64; x64; rv:109.0) Gecko/20100101 Firefox/111.0" etag="KsQFFvbpHRBeQZyekvSy" version="21.2.7" type="device">
  <diagram name="Page-1" id="kBD8zF36RnsX5B4lyGu-">
    <mxGraphModel dx="1290" dy="538" grid="1" gridSize="10" guides="1" tooltips="1" connect="1" arrows="1" fold="1" page="1" pageScale="1" pageWidth="850" pageHeight="1100" math="0" shadow="0">
      <root>
        <mxCell id="0" />
        <mxCell id="1" parent="0" />
        <mxCell id="kUwVh1HZHVRW1lMPcFTp-1" value="One place" style="swimlane;fontStyle=0;childLayout=stackLayout;horizontal=1;startSize=30;horizontalStack=0;resizeParent=1;resizeParentMax=0;resizeLast=0;collapsible=1;marginBottom=0;whiteSpace=wrap;html=1;" vertex="1" parent="1">
          <mxGeometry x="410" y="290" width="140" height="150" as="geometry" />
        </mxCell>
        <mxCell id="kUwVh1HZHVRW1lMPcFTp-2" value="Acolyte" style="text;strokeColor=none;fillColor=none;align=left;verticalAlign=middle;spacingLeft=4;spacingRight=4;overflow=hidden;points=[[0,0.5],[1,0.5]];portConstraint=eastwest;rotatable=0;whiteSpace=wrap;html=1;" vertex="1" parent="kUwVh1HZHVRW1lMPcFTp-1">
          <mxGeometry y="30" width="140" height="30" as="geometry" />
        </mxCell>
        <mxCell id="kUwVh1HZHVRW1lMPcFTp-3" value="Hermit" style="text;strokeColor=none;fillColor=none;align=left;verticalAlign=middle;spacingLeft=4;spacingRight=4;overflow=hidden;points=[[0,0.5],[1,0.5]];portConstraint=eastwest;rotatable=0;whiteSpace=wrap;html=1;" vertex="1" parent="kUwVh1HZHVRW1lMPcFTp-1">
          <mxGeometry y="60" width="140" height="30" as="geometry" />
        </mxCell>
        <mxCell id="kUwVh1HZHVRW1lMPcFTp-4" value="Sage" style="text;strokeColor=none;fillColor=none;align=left;verticalAlign=middle;spacingLeft=4;spacingRight=4;overflow=hidden;points=[[0,0.5],[1,0.5]];portConstraint=eastwest;rotatable=0;whiteSpace=wrap;html=1;" vertex="1" parent="kUwVh1HZHVRW1lMPcFTp-1">
          <mxGeometry y="90" width="140" height="30" as="geometry" />
        </mxCell>
        <mxCell id="kUwVh1HZHVRW1lMPcFTp-35" value="Noble" style="text;strokeColor=none;fillColor=none;align=left;verticalAlign=middle;spacingLeft=4;spacingRight=4;overflow=hidden;points=[[0,0.5],[1,0.5]];portConstraint=eastwest;rotatable=0;whiteSpace=wrap;html=1;" vertex="1" parent="kUwVh1HZHVRW1lMPcFTp-1">
          <mxGeometry y="120" width="140" height="30" as="geometry" />
        </mxCell>
        <mxCell id="kUwVh1HZHVRW1lMPcFTp-11" value="Wandering spirit" style="swimlane;fontStyle=0;childLayout=stackLayout;horizontal=1;startSize=30;horizontalStack=0;resizeParent=1;resizeParentMax=0;resizeLast=0;collapsible=1;marginBottom=0;whiteSpace=wrap;html=1;" vertex="1" parent="1">
          <mxGeometry x="50" y="290" width="140" height="150" as="geometry" />
        </mxCell>
        <mxCell id="kUwVh1HZHVRW1lMPcFTp-13" value="Entertainer" style="text;strokeColor=none;fillColor=none;align=left;verticalAlign=middle;spacingLeft=4;spacingRight=4;overflow=hidden;points=[[0,0.5],[1,0.5]];portConstraint=eastwest;rotatable=0;whiteSpace=wrap;html=1;" vertex="1" parent="kUwVh1HZHVRW1lMPcFTp-11">
          <mxGeometry y="30" width="140" height="30" as="geometry" />
        </mxCell>
        <mxCell id="kUwVh1HZHVRW1lMPcFTp-14" value="Folk hero" style="text;strokeColor=none;fillColor=none;align=left;verticalAlign=middle;spacingLeft=4;spacingRight=4;overflow=hidden;points=[[0,0.5],[1,0.5]];portConstraint=eastwest;rotatable=0;whiteSpace=wrap;html=1;" vertex="1" parent="kUwVh1HZHVRW1lMPcFTp-11">
          <mxGeometry y="60" width="140" height="30" as="geometry" />
        </mxCell>
        <mxCell id="kUwVh1HZHVRW1lMPcFTp-15" value="Outlander" style="text;strokeColor=none;fillColor=none;align=left;verticalAlign=middle;spacingLeft=4;spacingRight=4;overflow=hidden;points=[[0,0.5],[1,0.5]];portConstraint=eastwest;rotatable=0;whiteSpace=wrap;html=1;" vertex="1" parent="kUwVh1HZHVRW1lMPcFTp-11">
          <mxGeometry y="90" width="140" height="30" as="geometry" />
        </mxCell>
        <mxCell id="kUwVh1HZHVRW1lMPcFTp-16" value="Sailor" style="text;strokeColor=none;fillColor=none;align=left;verticalAlign=middle;spacingLeft=4;spacingRight=4;overflow=hidden;points=[[0,0.5],[1,0.5]];portConstraint=eastwest;rotatable=0;whiteSpace=wrap;html=1;" vertex="1" parent="kUwVh1HZHVRW1lMPcFTp-11">
          <mxGeometry y="120" width="140" height="30" as="geometry" />
        </mxCell>
        <mxCell id="kUwVh1HZHVRW1lMPcFTp-39" value="Loner" style="swimlane;fontStyle=0;childLayout=stackLayout;horizontal=1;startSize=30;horizontalStack=0;resizeParent=1;resizeParentMax=0;resizeLast=0;collapsible=1;marginBottom=0;whiteSpace=wrap;html=1;" vertex="1" parent="1">
          <mxGeometry x="230" y="290" width="140" height="150" as="geometry" />
        </mxCell>
        <mxCell id="kUwVh1HZHVRW1lMPcFTp-40" value="Criminal" style="text;strokeColor=none;fillColor=none;align=left;verticalAlign=middle;spacingLeft=4;spacingRight=4;overflow=hidden;points=[[0,0.5],[1,0.5]];portConstraint=eastwest;rotatable=0;whiteSpace=wrap;html=1;" vertex="1" parent="kUwVh1HZHVRW1lMPcFTp-39">
          <mxGeometry y="30" width="140" height="30" as="geometry" />
        </mxCell>
        <mxCell id="kUwVh1HZHVRW1lMPcFTp-41" value="Urchin" style="text;strokeColor=none;fillColor=none;align=left;verticalAlign=middle;spacingLeft=4;spacingRight=4;overflow=hidden;points=[[0,0.5],[1,0.5]];portConstraint=eastwest;rotatable=0;whiteSpace=wrap;html=1;" vertex="1" parent="kUwVh1HZHVRW1lMPcFTp-39">
          <mxGeometry y="60" width="140" height="30" as="geometry" />
        </mxCell>
        <mxCell id="kUwVh1HZHVRW1lMPcFTp-64" value="Charlatan" style="text;strokeColor=none;fillColor=none;align=left;verticalAlign=middle;spacingLeft=4;spacingRight=4;overflow=hidden;points=[[0,0.5],[1,0.5]];portConstraint=eastwest;rotatable=0;whiteSpace=wrap;html=1;" vertex="1" parent="kUwVh1HZHVRW1lMPcFTp-39">
          <mxGeometry y="90" width="140" height="30" as="geometry" />
        </mxCell>
        <mxCell id="kUwVh1HZHVRW1lMPcFTp-42" value="Hermit" style="text;strokeColor=none;fillColor=none;align=left;verticalAlign=middle;spacingLeft=4;spacingRight=4;overflow=hidden;points=[[0,0.5],[1,0.5]];portConstraint=eastwest;rotatable=0;whiteSpace=wrap;html=1;" vertex="1" parent="kUwVh1HZHVRW1lMPcFTp-39">
          <mxGeometry y="120" width="140" height="30" as="geometry" />
        </mxCell>
        <mxCell id="kUwVh1HZHVRW1lMPcFTp-43" value="Organization member" style="swimlane;fontStyle=0;childLayout=stackLayout;horizontal=1;startSize=30;horizontalStack=0;resizeParent=1;resizeParentMax=0;resizeLast=0;collapsible=1;marginBottom=0;whiteSpace=wrap;html=1;" vertex="1" parent="1">
          <mxGeometry x="590" y="290" width="140" height="180" as="geometry" />
        </mxCell>
        <mxCell id="kUwVh1HZHVRW1lMPcFTp-44" value="Acolyte" style="text;strokeColor=none;fillColor=none;align=left;verticalAlign=middle;spacingLeft=4;spacingRight=4;overflow=hidden;points=[[0,0.5],[1,0.5]];portConstraint=eastwest;rotatable=0;whiteSpace=wrap;html=1;" vertex="1" parent="kUwVh1HZHVRW1lMPcFTp-43">
          <mxGeometry y="30" width="140" height="30" as="geometry" />
        </mxCell>
        <mxCell id="kUwVh1HZHVRW1lMPcFTp-48" value="Entertainer" style="text;strokeColor=none;fillColor=none;align=left;verticalAlign=middle;spacingLeft=4;spacingRight=4;overflow=hidden;points=[[0,0.5],[1,0.5]];portConstraint=eastwest;rotatable=0;whiteSpace=wrap;html=1;" vertex="1" parent="kUwVh1HZHVRW1lMPcFTp-43">
          <mxGeometry y="60" width="140" height="30" as="geometry" />
        </mxCell>
        <mxCell id="kUwVh1HZHVRW1lMPcFTp-46" value="Guild Artisan" style="text;strokeColor=none;fillColor=none;align=left;verticalAlign=middle;spacingLeft=4;spacingRight=4;overflow=hidden;points=[[0,0.5],[1,0.5]];portConstraint=eastwest;rotatable=0;whiteSpace=wrap;html=1;" vertex="1" parent="kUwVh1HZHVRW1lMPcFTp-43">
          <mxGeometry y="90" width="140" height="30" as="geometry" />
        </mxCell>
        <mxCell id="kUwVh1HZHVRW1lMPcFTp-49" value="Soldier" style="text;strokeColor=none;fillColor=none;align=left;verticalAlign=middle;spacingLeft=4;spacingRight=4;overflow=hidden;points=[[0,0.5],[1,0.5]];portConstraint=eastwest;rotatable=0;whiteSpace=wrap;html=1;" vertex="1" parent="kUwVh1HZHVRW1lMPcFTp-43">
          <mxGeometry y="120" width="140" height="30" as="geometry" />
        </mxCell>
        <mxCell id="kUwVh1HZHVRW1lMPcFTp-47" value="Criminal" style="text;strokeColor=none;fillColor=none;align=left;verticalAlign=middle;spacingLeft=4;spacingRight=4;overflow=hidden;points=[[0,0.5],[1,0.5]];portConstraint=eastwest;rotatable=0;whiteSpace=wrap;html=1;" vertex="1" parent="kUwVh1HZHVRW1lMPcFTp-43">
          <mxGeometry y="150" width="140" height="30" as="geometry" />
        </mxCell>
        <mxCell id="kUwVh1HZHVRW1lMPcFTp-93" value="" style="group" vertex="1" connectable="0" parent="1">
          <mxGeometry x="80" y="1200" width="459" height="165" as="geometry" />
        </mxCell>
        <mxCell id="kUwVh1HZHVRW1lMPcFTp-23" value="spiritual" style="rounded=1;whiteSpace=wrap;html=1;" vertex="1" parent="kUwVh1HZHVRW1lMPcFTp-93">
          <mxGeometry x="139" y="26" width="80" height="30" as="geometry" />
        </mxCell>
        <mxCell id="kUwVh1HZHVRW1lMPcFTp-24" value="academic" style="rounded=1;whiteSpace=wrap;html=1;" vertex="1" parent="kUwVh1HZHVRW1lMPcFTp-93">
          <mxGeometry x="139" y="106" width="80" height="30" as="geometry" />
        </mxCell>
        <mxCell id="kUwVh1HZHVRW1lMPcFTp-25" value="spent life in temples" style="rounded=1;whiteSpace=wrap;html=1;" vertex="1" parent="kUwVh1HZHVRW1lMPcFTp-93">
          <mxGeometry x="249" width="90" height="30" as="geometry" />
        </mxCell>
        <mxCell id="kUwVh1HZHVRW1lMPcFTp-26" value="spent life isolated" style="rounded=1;whiteSpace=wrap;html=1;" vertex="1" parent="kUwVh1HZHVRW1lMPcFTp-93">
          <mxGeometry x="249" y="41" width="90" height="30" as="geometry" />
        </mxCell>
        <mxCell id="kUwVh1HZHVRW1lMPcFTp-37" value="dedicated" style="rounded=1;whiteSpace=wrap;html=1;" vertex="1" parent="kUwVh1HZHVRW1lMPcFTp-93">
          <mxGeometry x="249" y="94" width="90" height="30" as="geometry" />
        </mxCell>
        <mxCell id="kUwVh1HZHVRW1lMPcFTp-38" value="highborn" style="rounded=1;whiteSpace=wrap;html=1;" vertex="1" parent="kUwVh1HZHVRW1lMPcFTp-93">
          <mxGeometry x="249" y="134" width="90" height="30" as="geometry" />
        </mxCell>
        <mxCell id="kUwVh1HZHVRW1lMPcFTp-74" value="&lt;div&gt;always in the &lt;br&gt;&lt;/div&gt;&lt;div&gt;same place&lt;/div&gt;" style="rounded=1;whiteSpace=wrap;html=1;" vertex="1" parent="kUwVh1HZHVRW1lMPcFTp-93">
          <mxGeometry y="66" width="110" height="40" as="geometry" />
        </mxCell>
        <mxCell id="kUwVh1HZHVRW1lMPcFTp-75" value="acolyte" style="rounded=1;whiteSpace=wrap;html=1;arcSize=50;" vertex="1" parent="kUwVh1HZHVRW1lMPcFTp-93">
          <mxGeometry x="369" width="90" height="30" as="geometry" />
        </mxCell>
        <mxCell id="kUwVh1HZHVRW1lMPcFTp-76" value="hermit" style="rounded=1;whiteSpace=wrap;html=1;arcSize=50;" vertex="1" parent="kUwVh1HZHVRW1lMPcFTp-93">
          <mxGeometry x="369" y="41" width="90" height="30" as="geometry" />
        </mxCell>
        <mxCell id="kUwVh1HZHVRW1lMPcFTp-77" value="sage" style="rounded=1;whiteSpace=wrap;html=1;arcSize=50;" vertex="1" parent="kUwVh1HZHVRW1lMPcFTp-93">
          <mxGeometry x="369" y="94" width="90" height="30" as="geometry" />
        </mxCell>
        <mxCell id="kUwVh1HZHVRW1lMPcFTp-78" value="noble" style="rounded=1;whiteSpace=wrap;html=1;arcSize=50;" vertex="1" parent="kUwVh1HZHVRW1lMPcFTp-93">
          <mxGeometry x="369" y="135" width="90" height="30" as="geometry" />
        </mxCell>
        <mxCell id="kUwVh1HZHVRW1lMPcFTp-94" value="" style="group" vertex="1" connectable="0" parent="1">
          <mxGeometry x="80" y="1430" width="559" height="175" as="geometry" />
        </mxCell>
        <mxCell id="kUwVh1HZHVRW1lMPcFTp-17" value="&lt;div&gt;famous, people&#39;s person, &lt;br&gt;&lt;/div&gt;&lt;div&gt;beloved by the masses&lt;/div&gt;" style="rounded=1;whiteSpace=wrap;html=1;" vertex="1" parent="kUwVh1HZHVRW1lMPcFTp-94">
          <mxGeometry x="139" y="25" width="180" height="35" as="geometry" />
        </mxCell>
        <mxCell id="kUwVh1HZHVRW1lMPcFTp-18" value="&lt;div&gt;secluded but not isolated, &lt;br&gt;&lt;/div&gt;&lt;div&gt;nature over people &lt;/div&gt;" style="rounded=1;whiteSpace=wrap;html=1;" vertex="1" parent="kUwVh1HZHVRW1lMPcFTp-94">
          <mxGeometry x="139" y="120" width="180" height="40" as="geometry" />
        </mxCell>
        <mxCell id="kUwVh1HZHVRW1lMPcFTp-19" value="the sea" style="rounded=1;whiteSpace=wrap;html=1;" vertex="1" parent="kUwVh1HZHVRW1lMPcFTp-94">
          <mxGeometry x="349" y="145" width="90" height="30" as="geometry" />
        </mxCell>
        <mxCell id="kUwVh1HZHVRW1lMPcFTp-20" value="the wilds" style="rounded=1;whiteSpace=wrap;html=1;" vertex="1" parent="kUwVh1HZHVRW1lMPcFTp-94">
          <mxGeometry x="349" y="105" width="90" height="30" as="geometry" />
        </mxCell>
        <mxCell id="kUwVh1HZHVRW1lMPcFTp-21" value="brave hero" style="rounded=1;whiteSpace=wrap;html=1;" vertex="1" parent="kUwVh1HZHVRW1lMPcFTp-94">
          <mxGeometry x="349" y="45" width="90" height="30" as="geometry" />
        </mxCell>
        <mxCell id="kUwVh1HZHVRW1lMPcFTp-22" value="talented perfomer" style="rounded=1;whiteSpace=wrap;html=1;" vertex="1" parent="kUwVh1HZHVRW1lMPcFTp-94">
          <mxGeometry x="349" width="90" height="30" as="geometry" />
        </mxCell>
        <mxCell id="kUwVh1HZHVRW1lMPcFTp-69" value="wandering spirit" style="rounded=1;whiteSpace=wrap;html=1;" vertex="1" parent="kUwVh1HZHVRW1lMPcFTp-94">
          <mxGeometry y="70" width="110" height="40" as="geometry" />
        </mxCell>
        <mxCell id="kUwVh1HZHVRW1lMPcFTp-70" value="entertainer" style="rounded=1;whiteSpace=wrap;html=1;arcSize=50;" vertex="1" parent="kUwVh1HZHVRW1lMPcFTp-94">
          <mxGeometry x="469" width="90" height="30" as="geometry" />
        </mxCell>
        <mxCell id="kUwVh1HZHVRW1lMPcFTp-71" value="folk hero" style="rounded=1;whiteSpace=wrap;html=1;arcSize=50;" vertex="1" parent="kUwVh1HZHVRW1lMPcFTp-94">
          <mxGeometry x="469" y="45" width="90" height="30" as="geometry" />
        </mxCell>
        <mxCell id="kUwVh1HZHVRW1lMPcFTp-72" value="outlander" style="rounded=1;whiteSpace=wrap;html=1;arcSize=50;" vertex="1" parent="kUwVh1HZHVRW1lMPcFTp-94">
          <mxGeometry x="469" y="105" width="90" height="30" as="geometry" />
        </mxCell>
        <mxCell id="kUwVh1HZHVRW1lMPcFTp-73" value="sailor" style="rounded=1;whiteSpace=wrap;html=1;arcSize=50;" vertex="1" parent="kUwVh1HZHVRW1lMPcFTp-94">
          <mxGeometry x="469" y="145" width="90" height="30" as="geometry" />
        </mxCell>
        <mxCell id="kUwVh1HZHVRW1lMPcFTp-95" value="" style="group" vertex="1" connectable="0" parent="1">
          <mxGeometry x="80" y="960" width="450" height="190" as="geometry" />
        </mxCell>
        <mxCell id="kUwVh1HZHVRW1lMPcFTp-32" value="performer" style="rounded=1;whiteSpace=wrap;html=1;" vertex="1" parent="kUwVh1HZHVRW1lMPcFTp-95">
          <mxGeometry x="250" width="80" height="30" as="geometry" />
        </mxCell>
        <mxCell id="kUwVh1HZHVRW1lMPcFTp-34" value="craftsman" style="rounded=1;whiteSpace=wrap;html=1;" vertex="1" parent="kUwVh1HZHVRW1lMPcFTp-95">
          <mxGeometry x="250" y="40" width="80" height="30" as="geometry" />
        </mxCell>
        <mxCell id="kUwVh1HZHVRW1lMPcFTp-50" value="religious" style="rounded=1;whiteSpace=wrap;html=1;" vertex="1" parent="kUwVh1HZHVRW1lMPcFTp-95">
          <mxGeometry x="140" y="85" width="80" height="30" as="geometry" />
        </mxCell>
        <mxCell id="kUwVh1HZHVRW1lMPcFTp-57" value="artistic" style="rounded=1;whiteSpace=wrap;html=1;" vertex="1" parent="kUwVh1HZHVRW1lMPcFTp-95">
          <mxGeometry x="140" y="26" width="80" height="30" as="geometry" />
        </mxCell>
        <mxCell id="kUwVh1HZHVRW1lMPcFTp-58" value="violent" style="rounded=1;whiteSpace=wrap;html=1;" vertex="1" parent="kUwVh1HZHVRW1lMPcFTp-95">
          <mxGeometry x="140" y="140" width="80" height="30" as="geometry" />
        </mxCell>
        <mxCell id="kUwVh1HZHVRW1lMPcFTp-59" value="law-obeying" style="rounded=1;whiteSpace=wrap;html=1;" vertex="1" parent="kUwVh1HZHVRW1lMPcFTp-95">
          <mxGeometry x="250" y="120" width="80" height="30" as="geometry" />
        </mxCell>
        <mxCell id="kUwVh1HZHVRW1lMPcFTp-61" value="law-breaking" style="rounded=1;whiteSpace=wrap;html=1;" vertex="1" parent="kUwVh1HZHVRW1lMPcFTp-95">
          <mxGeometry x="250" y="160" width="80" height="30" as="geometry" />
        </mxCell>
        <mxCell id="kUwVh1HZHVRW1lMPcFTp-81" value="organization member" style="rounded=1;whiteSpace=wrap;html=1;" vertex="1" parent="kUwVh1HZHVRW1lMPcFTp-95">
          <mxGeometry y="80" width="110" height="40" as="geometry" />
        </mxCell>
        <mxCell id="kUwVh1HZHVRW1lMPcFTp-82" value="entertainer" style="rounded=1;whiteSpace=wrap;html=1;arcSize=50;" vertex="1" parent="kUwVh1HZHVRW1lMPcFTp-95">
          <mxGeometry x="360" y="1" width="90" height="30" as="geometry" />
        </mxCell>
        <mxCell id="kUwVh1HZHVRW1lMPcFTp-83" value="guild artisan" style="rounded=1;whiteSpace=wrap;html=1;arcSize=50;" vertex="1" parent="kUwVh1HZHVRW1lMPcFTp-95">
          <mxGeometry x="360" y="40" width="90" height="30" as="geometry" />
        </mxCell>
        <mxCell id="kUwVh1HZHVRW1lMPcFTp-84" value="acolyte" style="rounded=1;whiteSpace=wrap;html=1;arcSize=50;" vertex="1" parent="kUwVh1HZHVRW1lMPcFTp-95">
          <mxGeometry x="360" y="80" width="90" height="30" as="geometry" />
        </mxCell>
        <mxCell id="kUwVh1HZHVRW1lMPcFTp-85" value="soldier" style="rounded=1;whiteSpace=wrap;html=1;arcSize=50;" vertex="1" parent="kUwVh1HZHVRW1lMPcFTp-95">
          <mxGeometry x="360" y="120" width="90" height="30" as="geometry" />
        </mxCell>
        <mxCell id="kUwVh1HZHVRW1lMPcFTp-86" value="criminal" style="rounded=1;whiteSpace=wrap;html=1;arcSize=50;" vertex="1" parent="kUwVh1HZHVRW1lMPcFTp-95">
          <mxGeometry x="360" y="160" width="90" height="30" as="geometry" />
        </mxCell>
        <mxCell id="kUwVh1HZHVRW1lMPcFTp-96" value="" style="group" vertex="1" connectable="0" parent="1">
          <mxGeometry x="80" y="700" width="450" height="180" as="geometry" />
        </mxCell>
        <mxCell id="kUwVh1HZHVRW1lMPcFTp-62" value="city-dwelling" style="rounded=1;whiteSpace=wrap;html=1;" vertex="1" parent="kUwVh1HZHVRW1lMPcFTp-96">
          <mxGeometry x="140" y="70" width="90" height="30" as="geometry" />
        </mxCell>
        <mxCell id="kUwVh1HZHVRW1lMPcFTp-63" value="nature-dwelling" style="rounded=1;whiteSpace=wrap;html=1;" vertex="1" parent="kUwVh1HZHVRW1lMPcFTp-96">
          <mxGeometry x="140" y="150" width="90" height="30" as="geometry" />
        </mxCell>
        <mxCell id="kUwVh1HZHVRW1lMPcFTp-65" value="violence" style="rounded=1;whiteSpace=wrap;html=1;" vertex="1" parent="kUwVh1HZHVRW1lMPcFTp-96">
          <mxGeometry x="250" y="30" width="80" height="30" as="geometry" />
        </mxCell>
        <mxCell id="kUwVh1HZHVRW1lMPcFTp-66" value="swindling" style="rounded=1;whiteSpace=wrap;html=1;" vertex="1" parent="kUwVh1HZHVRW1lMPcFTp-96">
          <mxGeometry x="250" y="110" width="80" height="30" as="geometry" />
        </mxCell>
        <mxCell id="kUwVh1HZHVRW1lMPcFTp-67" value="pickpocketing" style="rounded=1;whiteSpace=wrap;html=1;" vertex="1" parent="kUwVh1HZHVRW1lMPcFTp-96">
          <mxGeometry x="250" y="70" width="80" height="30" as="geometry" />
        </mxCell>
        <mxCell id="kUwVh1HZHVRW1lMPcFTp-68" value="gets by on" style="text;html=1;align=center;verticalAlign=middle;resizable=0;points=[];autosize=1;strokeColor=none;fillColor=none;" vertex="1" parent="kUwVh1HZHVRW1lMPcFTp-96">
          <mxGeometry x="250" width="80" height="30" as="geometry" />
        </mxCell>
        <mxCell id="kUwVh1HZHVRW1lMPcFTp-87" value="loner" style="rounded=1;whiteSpace=wrap;html=1;" vertex="1" parent="kUwVh1HZHVRW1lMPcFTp-96">
          <mxGeometry y="105" width="110" height="40" as="geometry" />
        </mxCell>
        <mxCell id="kUwVh1HZHVRW1lMPcFTp-89" value="hermit" style="rounded=1;whiteSpace=wrap;html=1;arcSize=50;" vertex="1" parent="kUwVh1HZHVRW1lMPcFTp-96">
          <mxGeometry x="360" y="150" width="90" height="30" as="geometry" />
        </mxCell>
        <mxCell id="kUwVh1HZHVRW1lMPcFTp-90" value="criminal" style="rounded=1;whiteSpace=wrap;html=1;arcSize=50;" vertex="1" parent="kUwVh1HZHVRW1lMPcFTp-96">
          <mxGeometry x="360" y="30" width="90" height="30" as="geometry" />
        </mxCell>
        <mxCell id="kUwVh1HZHVRW1lMPcFTp-91" value="urchin" style="rounded=1;whiteSpace=wrap;html=1;arcSize=50;" vertex="1" parent="kUwVh1HZHVRW1lMPcFTp-96">
          <mxGeometry x="360" y="70" width="90" height="30" as="geometry" />
        </mxCell>
        <mxCell id="kUwVh1HZHVRW1lMPcFTp-92" value="charlatan" style="rounded=1;whiteSpace=wrap;html=1;arcSize=50;" vertex="1" parent="kUwVh1HZHVRW1lMPcFTp-96">
          <mxGeometry x="360" y="110" width="90" height="30" as="geometry" />
        </mxCell>
      </root>
    </mxGraphModel>
  </diagram>
</mxfile>
